<svg xmlns="http://www.w3.org/2000/svg" viewBox="0 0 920 640" font-family="Segoe UI, Arial, sans-serif">
  <rect width="920" height="640" fill="#ffffff"/>
  <text x="460" y="38" font-size="22" font-weight="700" text-anchor="middle" fill="#1a2b4a">Alaska Department of Snow — Generative AI Agent</text>
  <text x="460" y="60" font-size="13" text-anchor="middle" fill="#5a6b85">Secure, grounded RAG + live API agent (Challenge 5)</text>

  <!-- User / Website -->
  <rect x="40" y="100" width="180" height="80" rx="10" fill="#e3f2fd" stroke="#1976d2" stroke-width="2"/>
  <text x="130" y="135" font-size="15" font-weight="600" text-anchor="middle" fill="#0d47a1">User (Browser)</text>
  <text x="130" y="158" font-size="12" text-anchor="middle" fill="#37474f">Flask website (app.py)</text>

  <!-- Security: input -->
  <rect x="300" y="95" width="180" height="90" rx="10" fill="#fff3e0" stroke="#f57c00" stroke-width="2"/>
  <text x="390" y="125" font-size="14" font-weight="600" text-anchor="middle" fill="#e65100">Input Filter</text>
  <text x="390" y="146" font-size="11" text-anchor="middle" fill="#5d4037">Model Armor</text>
  <text x="390" y="162" font-size="11" text-anchor="middle" fill="#5d4037">sanitize_prompt</text>
  <text x="390" y="177" font-size="10" text-anchor="middle" fill="#8d6e63">injection / jailbreak</text>

  <!-- Agent core -->
  <rect x="560" y="90" width="320" height="170" rx="12" fill="#ede7f6" stroke="#5e35b1" stroke-width="2"/>
  <text x="720" y="120" font-size="15" font-weight="700" text-anchor="middle" fill="#4527a0">Gemini Agent (2.5 Flash)</text>
  <text x="720" y="140" font-size="11" text-anchor="middle" fill="#5e35b1">Automatic function calling</text>

  <rect x="580" y="155" width="130" height="80" rx="8" fill="#fff" stroke="#7e57c2" stroke-width="1.5"/>
  <text x="645" y="182" font-size="12" font-weight="600" text-anchor="middle" fill="#4527a0">Tool: RAG</text>
  <text x="645" y="200" font-size="10" text-anchor="middle" fill="#5d4037">search_snow_</text>
  <text x="645" y="214" font-size="10" text-anchor="middle" fill="#5d4037">department_info</text>

  <rect x="730" y="155" width="130" height="80" rx="8" fill="#fff" stroke="#7e57c2" stroke-width="1.5"/>
  <text x="795" y="182" font-size="12" font-weight="600" text-anchor="middle" fill="#4527a0">Tool: Weather</text>
  <text x="795" y="200" font-size="10" text-anchor="middle" fill="#5d4037">get_local_</text>
  <text x="795" y="214" font-size="10" text-anchor="middle" fill="#5d4037">weather</text>

  <!-- Backend RAG -->
  <rect x="560" y="320" width="150" height="100" rx="10" fill="#e8f5e9" stroke="#2e7d32" stroke-width="2"/>
  <text x="635" y="348" font-size="13" font-weight="600" text-anchor="middle" fill="#1b5e20">BigQuery</text>
  <text x="635" y="368" font-size="10" text-anchor="middle" fill="#33691e">snow_embeddings</text>
  <text x="635" y="384" font-size="10" text-anchor="middle" fill="#33691e">VECTOR_SEARCH</text>
  <text x="635" y="404" font-size="10" text-anchor="middle" fill="#558b2f">ML.GENERATE_EMBEDDING</text>

  <!-- GCS -->
  <rect x="560" y="470" width="150" height="70" rx="10" fill="#e0f7fa" stroke="#00838f" stroke-width="2"/>
  <text x="635" y="500" font-size="12" font-weight="600" text-anchor="middle" fill="#006064">Cloud Storage</text>
  <text x="635" y="520" font-size="9.5" text-anchor="middle" fill="#00695c">alaska-dept-of-snow CSV</text>

  <!-- Weather API -->
  <rect x="740" y="320" width="140" height="100" rx="10" fill="#fce4ec" stroke="#c2185b" stroke-width="2"/>
  <text x="810" y="352" font-size="13" font-weight="600" text-anchor="middle" fill="#880e4f">Weather API</text>
  <text x="810" y="372" font-size="10" text-anchor="middle" fill="#ad1457">OpenWeatherMap</text>
  <text x="810" y="388" font-size="9.5" text-anchor="middle" fill="#ad1457">(stubbed)</text>

  <!-- Security: output -->
  <rect x="300" y="300" width="180" height="100" rx="10" fill="#fff3e0" stroke="#f57c00" stroke-width="2"/>
  <text x="390" y="330" font-size="14" font-weight="600" text-anchor="middle" fill="#e65100">Output Filter</text>
  <text x="390" y="351" font-size="11" text-anchor="middle" fill="#5d4037">Response validation</text>
  <text x="390" y="367" font-size="11" text-anchor="middle" fill="#5d4037">Model Armor</text>
  <text x="390" y="382" font-size="11" text-anchor="middle" fill="#5d4037">sanitize_reponse (SDP)</text>

  <!-- Logging -->
  <rect x="300" y="450" width="180" height="80" rx="10" fill="#e8f5e9" stroke="#2e7d32" stroke-width="2"/>
  <text x="390" y="480" font-size="13" font-weight="600" text-anchor="middle" fill="#1b5e20">BigQuery Logging</text>
  <text x="390" y="500" font-size="10" text-anchor="middle" fill="#33691e">interaction_log</text>
  <text x="390" y="516" font-size="9.5" text-anchor="middle" fill="#558b2f">all prompts + responses</text>

  <!-- Eval + Tests -->
  <rect x="40" y="300" width="180" height="100" rx="10" fill="#f3e5f5" stroke="#8e24aa" stroke-width="2"/>
  <text x="130" y="330" font-size="13" font-weight="600" text-anchor="middle" fill="#6a1b9a">Evaluation</text>
  <text x="130" y="350" font-size="10" text-anchor="middle" fill="#7b1fa2">Gen AI Evaluation API</text>
  <text x="130" y="366" font-size="10" text-anchor="middle" fill="#7b1fa2">fluency / coherence</text>
  <text x="130" y="384" font-size="9.5" text-anchor="middle" fill="#8e24aa">evaluation_data.csv</text>

  <rect x="40" y="450" width="180" height="80" rx="10" fill="#f3e5f5" stroke="#8e24aa" stroke-width="2"/>
  <text x="130" y="480" font-size="13" font-weight="600" text-anchor="middle" fill="#6a1b9a">Unit Tests</text>
  <text x="130" y="500" font-size="10" text-anchor="middle" fill="#7b1fa2">pytest (mocked)</text>
  <text x="130" y="516" font-size="9.5" text-anchor="middle" fill="#8e24aa">test_snow_agent.py</text>

  <!-- arrows -->
  <defs>
    <marker id="arrow" markerWidth="10" markerHeight="10" refX="8" refY="3" orient="auto" markerUnits="strokeWidth">
      <path d="M0,0 L8,3 L0,6 Z" fill="#455a64"/>
    </marker>
  </defs>
  <g stroke="#455a64" stroke-width="2" fill="none" marker-end="url(#arrow)">
    <line x1="220" y1="140" x2="298" y2="140"/>
    <line x1="480" y1="140" x2="558" y2="160"/>
    <line x1="645" y1="235" x2="640" y2="318"/>
    <line x1="635" y1="420" x2="635" y2="468"/>
    <line x1="795" y1="235" x2="805" y2="318"/>
    <line x1="640" y1="260" x2="475" y2="320"/>
    <line x1="390" y1="400" x2="390" y2="448"/>
  </g>
  <line x1="300" y1="350" x2="222" y2="350" stroke="#455a64" stroke-width="2" marker-end="url(#arrow)" stroke-dasharray="4 3"/>
  <line x1="390" y1="300" x2="160" y2="180" stroke="#90a4ae" stroke-width="1.5" fill="none" marker-end="url(#arrow)" stroke-dasharray="4 3"/>

  <text x="250" y="132" font-size="10" fill="#607d8b">prompt</text>
  <text x="500" y="138" font-size="10" fill="#607d8b">if safe</text>
  <text x="250" y="345" font-size="10" fill="#607d8b">answer</text>
</svg>
